####
#
# OBJ File Generated by Meshlab
#
####
# Object gouttiere50.obj
#
# Vertices: 27
# Faces: 50
#
####
mtllib ./gouttiere50.obj.mtl

vn 0.200879 -2.758723 -3.027214
v -10.810091 -3.735284 -37.056061
vn 1.595826 2.322825 -2.238178
v 32.964069 -0.173974 -32.093430
vn 2.088504 -1.545545 1.798347
v 20.918587 -2.525866 12.371290
vn 1.655860 -1.683832 -1.856791
v 33.629829 -3.476531 -32.078819
vn -2.763633 -1.992661 0.980853
v -29.413946 -3.085532 -4.384228
vn -2.672167 1.749023 -0.769576
v -32.725471 -0.044335 -31.620197
vn 0.845715 -1.410628 -2.487843
v -22.230516 -3.771472 -38.225777
vn 2.654956 -1.930280 1.256052
v 30.112350 -2.819436 -2.307345
vn 1.844872 2.610189 2.461257
v 14.051645 -0.138022 18.491331
vn 2.864330 -2.316752 1.062203
v 35.364975 -3.085703 -15.078748
vn 0.942462 -1.634706 2.633336
v 10.649791 -2.373417 20.817474
vn -0.439403 -2.275463 3.030996
v -6.783935 -2.417535 21.556965
vn -1.461056 -2.017069 -2.155623
v -28.968809 -3.842120 -38.130047
vn -0.279473 -6.049603 -1.029191
v -15.059394 -3.717502 -35.099117
vn -3.057425 -2.566103 0.079627
v -33.091129 -3.548400 -24.340374
vn -3.041895 2.631924 0.540441
v -32.207726 -0.046221 -16.600342
vn -2.769617 2.690041 1.389770
v -24.708031 -0.060739 6.074159
vn -1.602813 1.249230 2.344023
v -16.929943 -0.379103 17.445219
vn 0.352669 3.210059 -3.121652
v 11.227383 -0.131261 -34.511486
vn 2.657247 -1.755795 -0.827869
v 36.138702 -3.331288 -26.126238
vn 2.889922 2.022486 0.135989
v 36.844856 -0.180938 -20.771994
vn 2.679121 3.177452 1.642215
v 26.396025 -0.161025 3.557500
vn 0.000599 -0.000002 0.000082
v 6.130347 -0.121306 1.811225
vn 0.191704 2.259938 3.001595
v 3.781664 -0.116688 21.765553
vn -1.113421 2.215538 -2.503166
v -28.375399 -0.053377 -38.294521
vn -1.050302 2.537396 2.874301
v -9.738400 -0.090100 20.700150
vn -2.349312 -2.127439 1.839203
v -20.665306 -2.655011 13.390804
# 27 vertices, 0 vertices normals


usemtl material_0
f 17//17 5//5 27//27
f 25//25 7//7 13//13
f 24//24 12//12 11//11
f 9//9 11//11 3//3
f 24//24 11//11 9//9
f 18//18 27//27 12//12
f 13//13 15//15 6//6
f 20//20 10//10 4//4
f 10//10 8//8 4//4
f 11//11 27//27 3//3
f 5//5 15//15 14//14
f 1//1 27//27 14//14
f 1//1 4//4 27//27
f 8//8 3//3 27//27
f 11//11 12//12 27//27
f 8//8 27//27 4//4
f 15//15 13//13 14//14
f 13//13 7//7 14//14
f 5//5 14//14 27//27
f 16//16 15//15 5//5
f 25//25 13//13 6//6
f 17//17 16//16 5//5
f 25//25 14//14 7//7
f 18//18 12//12 26//26
f 25//25 1//1 14//14
f 22//22 9//9 3//3
f 1//1 19//19 4//4
f 22//22 3//3 8//8
f 8//8 10//10 21//21
f 2//2 21//21 4//4
f 20//20 4//4 21//21
f 20//20 21//21 10//10
f 15//15 16//16 6//6
f 6//6 16//16 25//25
f 2//2 22//22 21//21
f 22//22 8//8 21//21
f 4//4 19//19 2//2
f 19//19 22//22 2//2
f 19//19 9//9 22//22
f 24//24 9//9 23//23
f 9//9 19//19 23//23
f 19//19 24//24 23//23
f 19//19 26//26 24//24
f 24//24 26//26 12//12
f 1//1 25//25 19//19
f 19//19 25//25 26//26
f 25//25 17//17 26//26
f 26//26 17//17 18//18
f 27//27 18//18 17//17
f 17//17 25//25 16//16
# 50 faces, 0 coords texture

# End of File
