####
#
# OBJ File Generated by Meshlab
#
####
# Object gouttiere100.obj
#
# Vertices: 52
# Faces: 100
#
####
mtllib ./gouttiere100.obj.mtl

vn -1.588388 1.691138 0.323680
v 7.147807 -0.795516 0.418434
vn -2.473774 2.295286 3.295074
v -17.154816 -0.580238 17.228483
vn 1.894504 -2.597769 2.482700
v 15.957534 -2.424034 17.789940
vn 1.816225 3.048337 2.592309
v 15.359758 -0.148894 18.029163
vn -2.222922 -2.827177 2.231902
v -18.630630 -2.593787 15.794938
vn -0.591877 0.632433 -4.168089
v -12.757237 -2.170477 -35.487968
vn 0.535231 1.477964 -2.608383
v -13.562700 -0.083932 -37.053230
vn 1.675708 -0.544804 -5.543170
v -19.739071 -1.797693 -38.043472
vn -0.779358 -0.460719 -1.275892
v -13.942575 -3.769006 -37.336739
vn 1.487965 -2.307869 -2.337928
v 33.070019 -3.479059 -32.098377
vn 3.068253 -2.828969 -0.393232
v 36.096981 -3.319499 -25.483030
vn 0.651147 -2.716064 3.096620
v 6.885561 -2.369276 21.629635
vn -2.778402 -2.875647 1.480520
v -24.254272 -2.796544 7.677350
vn -2.993353 -2.889283 -0.687354
v -32.603523 -3.708007 -31.562675
vn 1.404640 -2.312655 -2.416656
v -19.912663 -3.805545 -37.989182
vn 2.058480 0.298970 -3.084403
v -19.050245 -3.098825 -36.303818
vn 2.588836 -2.896504 1.845478
v 23.665081 -2.603258 8.463659
vn -1.139718 -2.585309 2.915992
v -12.139682 -2.475386 20.069967
vn -2.980188 -2.832787 0.972482
v -29.448675 -3.101712 -5.068638
vn 0.093803 -4.419267 -2.630867
v -15.577030 -3.731179 -35.382023
vn -0.197993 -2.602228 3.152501
v -3.224310 -2.401037 21.865704
vn -0.695917 -2.556497 -2.826185
v -27.323328 -3.846141 -38.585129
vn -3.119563 -2.972498 0.125036
v -32.991753 -3.578307 -25.739819
vn -3.057722 -3.140145 0.726385
v -31.344006 -3.276906 -12.564482
vn -2.904377 2.620707 -0.880218
v -32.669849 -0.044612 -31.882826
vn -2.330695 -2.406018 -1.840307
v -30.284298 -3.808759 -36.513290
vn -2.541582 2.583175 1.735307
v -22.238590 -0.064599 11.387191
vn -0.506115 1.312169 -5.763556
v -9.472325 -1.931894 -36.899666
vn 2.668562 2.251751 -1.347466
v 35.026413 -0.180851 -29.841793
vn 3.013615 -2.896896 0.948247
v 34.580929 -3.043812 -12.951493
vn 3.109608 -3.030187 0.532860
v 35.794121 -3.160294 -18.339920
vn -3.128236 3.032389 0.088519
v -32.952450 -0.044650 -25.422100
vn -3.069799 2.781471 0.502715
v -31.980085 -0.046479 -14.927021
vn 3.101352 2.951696 -0.344015
v 36.052429 -0.179976 -25.452538
vn 3.098967 2.855368 0.350864
v 36.005459 -0.180456 -19.307037
vn 2.817789 -2.763236 1.427786
v 30.803249 -2.850400 -3.716200
vn 2.735644 3.030462 1.551873
v 28.546833 -0.166379 0.302075
vn 2.948786 2.967745 1.083791
v 33.883293 -0.181277 -10.940626
vn 2.645137 3.174648 1.701695
v 24.308075 -0.156900 7.300556
vn 2.394751 2.771379 2.003889
v 19.529127 -0.147410 13.897200
vn 1.345383 2.443248 -2.619226
v 33.012695 -0.174077 -32.090382
vn 1.195595 2.621135 2.857127
v 11.475700 -0.131700 20.089199
vn -0.154412 -0.035127 -0.350702
v 6.654388 -0.122313 3.374261
vn 0.333001 2.909161 3.100986
v 5.641152 -0.120366 21.750038
vn -0.099851 -0.055027 0.329640
v 7.043773 -0.123106 -0.995431
vn 0.330976 3.256804 -3.122138
v -3.883525 -0.101631 -36.206707
vn 0.142032 6.276010 -0.047118
v 3.101775 -0.115375 2.669675
vn -0.488269 3.074758 3.096087
v -5.510475 -0.097897 21.427938
vn -0.193852 3.724227 -3.055042
v -8.804962 -0.091988 -36.386452
vn -0.973252 3.113760 2.965965
v -11.227543 -0.087219 20.181337
vn -2.898213 2.821603 1.149818
v -27.679899 -0.055000 0.036300
vn -1.072774 2.253015 -2.598282
v -27.879192 -0.054180 -38.572754
# 52 vertices, 0 vertices normals


usemtl material_0
f 19//19 13//13 51//51
f 44//44 21//21 12//12
f 28//28 9//9 6//6
f 27//27 5//5 2//2
f 36//36 30//30 38//38
f 26//26 14//14 25//25
f 51//51 13//13 27//27
f 12//12 3//3 42//42
f 35//35 31//31 11//11
f 41//41 10//10 28//28
f 16//16 15//15 8//8
f 22//22 26//26 52//52
f 14//14 23//23 25//25
f 23//23 24//24 33//33
f 2//2 5//5 18//18
f 17//17 36//36 37//37
f 29//29 10//10 41//41
f 10//10 9//9 28//28
f 6//6 20//20 16//16
f 6//6 16//16 7//7
f 8//8 7//7 16//16
f 22//22 8//8 15//15
f 6//6 9//9 20//20
f 9//9 10//10 12//12
f 29//29 11//11 10//10
f 11//11 31//31 12//12
f 31//31 30//30 12//12
f 30//30 36//36 12//12
f 36//36 17//17 12//12
f 17//17 3//3 12//12
f 21//21 18//18 5//5
f 24//24 22//22 19//19
f 24//24 23//23 22//22
f 9//9 12//12 5//5
f 10//10 11//11 12//12
f 12//12 21//21 5//5
f 27//27 13//13 5//5
f 23//23 14//14 22//22
f 14//14 26//26 22//22
f 16//16 20//20 15//15
f 9//9 5//5 20//20
f 15//15 20//20 22//22
f 19//19 22//22 13//13
f 22//22 20//20 5//5
f 13//13 22//22 5//5
f 33//33 32//32 23//23
f 33//33 24//24 19//19
f 52//52 26//26 25//25
f 51//51 33//33 19//19
f 52//52 8//8 22//22
f 7//7 8//8 52//52
f 2//2 18//18 50//50
f 7//7 49//49 6//6
f 48//48 50//50 18//18
f 6//6 49//49 28//28
f 48//48 18//18 21//21
f 48//48 21//21 44//44
f 1//1 47//47 43//43
f 47//47 1//1 45//45
f 42//42 44//44 12//12
f 43//43 45//45 1//1
f 28//28 46//46 41//41
f 4//4 42//42 3//3
f 4//4 3//3 40//40
f 40//40 3//3 17//17
f 39//39 40//40 17//17
f 37//37 39//39 17//17
f 37//37 36//36 38//38
f 38//38 30//30 35//35
f 30//30 31//31 35//35
f 11//11 29//29 34//34
f 34//34 35//35 11//11
f 23//23 32//32 25//25
f 25//25 32//32 52//52
f 52//52 32//32 33//33
f 41//41 38//38 29//29
f 29//29 38//38 34//34
f 34//34 38//38 35//35
f 41//41 37//37 38//38
f 37//37 41//41 39//39
f 41//41 40//40 39//39
f 46//46 42//42 41//41
f 41//41 42//42 40//40
f 40//40 42//42 4//4
f 42//42 46//46 44//44
f 44//44 46//46 43//43
f 43//43 46//46 45//45
f 45//45 46//46 47//47
f 43//43 47//47 44//44
f 44//44 47//47 48//48
f 46//46 48//48 47//47
f 28//28 49//49 46//46
f 46//46 49//49 48//48
f 48//48 49//49 50//50
f 52//52 50//50 7//7
f 7//7 50//50 49//49
f 52//52 27//27 50//50
f 50//50 27//27 2//2
f 52//52 51//51 27//27
f 51//51 52//52 33//33
# 100 faces, 0 coords texture

# End of File
